<?xml version="1.0" encoding="utf-8"?>
<!-- Generator: Adobe Illustrator 19.2.0, SVG Export Plug-In . SVG Version: 6.00 Build 0)  -->
<svg version="1.1" id="Capa_1" xmlns="http://www.w3.org/2000/svg" xmlns:xlink="http://www.w3.org/1999/xlink" x="0px" y="0px"
	 viewBox="0 0 496.4 315.8" style="enable-background:new 0 0 496.4 315.8;" xml:space="preserve">
<g>
	<g>
		<path d="M230.2,315.8c-1.7,0-3.5-0.4-5-1.3c-3.1-1.8-5-5.1-5-8.7v-83.6H10c-5.5,0-10-4.5-10-10V103.6c0-5.5,4.5-10,10-10h210.2V10
			c0-3.6,1.9-6.9,5-8.7c3.1-1.8,6.9-1.8,10,0l256.2,147.9c3.1,1.8,5,5.1,5,8.7s-1.9,6.9-5,8.7L235.2,314.5
			C233.6,315.4,231.9,315.8,230.2,315.8z M20,202.2h210.2c5.5,0,10,4.5,10,10v76.3l226.2-130.6L240.2,27.3v76.3c0,5.5-4.5,10-10,10
			H20V202.2z"/>
	</g>
</g>
</svg>
