<?xml version="1.0" encoding="utf-8"?>
<!-- Generator: Adobe Illustrator 19.2.0, SVG Export Plug-In . SVG Version: 6.00 Build 0)  -->
<svg version="1.1" id="Capa_1" xmlns="http://www.w3.org/2000/svg" xmlns:xlink="http://www.w3.org/1999/xlink" x="0px" y="0px"
	 viewBox="0 0 496.4 315.8" style="enable-background:new 0 0 496.4 315.8;" xml:space="preserve">
<g>
	<g>
		<path d="M261.2,314.5L5,166.6c-3.1-1.8-5-5.1-5-8.7c0-3.6,1.9-6.9,5-8.7L261.2,1.3c3.1-1.8,6.9-1.8,10,0c3.1,1.8,5,5.1,5,8.7v83.6
			h210.2c5.5,0,10,4.5,10,10v108.6c0,5.5-4.5,10-10,10H276.2v83.6c0,3.6-1.9,6.9-5,8.7c-1.5,0.9-3.3,1.3-5,1.3
			C264.5,315.8,262.8,315.4,261.2,314.5z M476.4,113.6H266.2c-5.5,0-10-4.5-10-10V27.3L30,157.9l226.2,130.6v-76.3
			c0-5.5,4.5-10,10-10h210.2V113.6z"/>
	</g>
</g>
</svg>
